<mxfile host="app.diagrams.net" modified="2024-05-14T13:43:06.940Z" agent="Mozilla/5.0 (Macintosh; Intel Mac OS X 10_15_7) AppleWebKit/537.36 (KHTML, like Gecko) Chrome/123.0.0.0 Safari/537.36 OPR/109.0.0.0" version="24.3.1" etag="4cBuu-AYSsS4Ui_qKY1y" type="github">
  <diagram name="PÃ¡gina-1" id="yerM-l9EdVIVFdWMQ-4x">
    <mxGraphModel>
      <root>
        <mxCell id="0" />
        <mxCell id="1" parent="0" />
      </root>
    </mxGraphModel>
  </diagram>
</mxfile>
